<?xml version="1.0" encoding="UTF-8" standalone="no"?>
<svg width="56px" height="18px" viewBox="0 0 56 18" version="1.1" xmlns="http://www.w3.org/2000/svg" xmlns:xlink="http://www.w3.org/1999/xlink">
    <!-- Generator: Sketch 40.1 (33804) - http://www.bohemiancoding.com/sketch -->
    <title>Combined Shape</title>
    <desc>Created with Sketch.</desc>
    <defs></defs>
    <g id="Page-1" stroke="none" stroke-width="1" fill="none" fill-rule="evenodd">
        <g id="Group" transform="translate(-58.000000, -15.000000)" fill="#313131">
            <path d="M113.078493,26.1279387 C113.078493,26.9863063 112.92175,27.7919209 112.607518,28.5462896 C112.293286,29.3006584 111.85963,29.9615788 111.308791,30.5267902 C110.755713,31.0927552 110.106349,31.5396489 109.359954,31.8652107 C108.611321,32.1907724 107.795511,32.3543069 106.913273,32.3543069 C106.063129,32.3543069 105.265233,32.2035839 104.518092,31.903645 C103.770205,31.6037062 103.117109,31.183189 102.555821,30.6428469 C101.995278,30.1025049 101.545202,29.4641929 101.205593,28.7264036 C100.865983,27.989368 100.695805,27.1920432 100.695805,26.3336756 L100.695805,22.1413146 C100.695805,21.282947 100.853294,20.4773324 101.167527,19.72221 C101.481759,18.9678413 101.913921,18.3076744 102.467,17.7417095 C103.018585,17.1764981 103.668695,16.730358 104.416583,16.4040426 C105.162977,16.0784809 105.995954,15.9157 106.913273,15.9157 C107.728336,15.9157 108.509811,16.0656694 109.256952,16.3656082 C110.004093,16.6663007 110.658681,17.0853107 111.218477,17.6264064 C111.77902,18.1659948 112.229096,18.8050604 112.569452,19.5428496 C112.909061,20.2798852 113.078493,21.07721 113.078493,21.9348241 L113.078493,26.1279387 Z M108.938689,20.1087392 C108.674466,19.8510029 108.368444,19.6452659 108.022117,19.4915284 C107.672804,19.3370373 107.295128,19.259415 106.88685,19.259415 C106.480065,19.259415 106.106122,19.3325157 105.766512,19.478717 C105.426156,19.6241647 105.129091,19.8170902 104.875317,20.0574934 C104.62005,20.2978966 104.416284,20.5887921 104.263273,20.931687 C104.110262,21.2745818 104.033384,21.6348099 104.033384,22.0123711 L104.033384,26.1286169 C104.016963,26.5227576 104.081153,26.8965507 104.225207,27.2469818 C104.369261,27.59892 104.573027,27.9033806 104.835758,28.1603633 C105.099982,28.4173461 105.405257,28.6238366 105.753823,28.7775741 C106.101643,28.9320652 106.496486,29.008934 106.938352,29.008934 C107.312295,29.008934 107.668326,28.9365869 108.007935,28.7911392 C108.348291,28.6456915 108.64461,28.452766 108.900623,28.2116091 C109.155144,27.9719595 109.359656,27.6810641 109.51192,27.3374156 C109.664185,26.9945207 109.741064,26.6342927 109.741064,26.2574851 L109.766441,22.1412393 C109.766441,21.7470985 109.694787,21.3733054 109.549987,21.0221208 C109.405186,20.6701825 109.20142,20.365722 108.938689,20.1087392 Z M99.2179438,30.6812813 C99.2179438,31.1281751 99.0604545,31.5132724 98.7462223,31.8395878 C98.4319902,32.1651495 98.0461041,32.3369737 97.5878178,32.3543069 C97.1287851,32.3543069 96.7346887,32.2035839 96.4032895,31.903645 C96.0718902,31.6037062 95.9061906,31.222377 95.9061906,30.7589037 L95.9061906,22.2181834 C95.9061906,21.823289 95.8330439,21.4502495 95.6897362,21.0990649 C95.545682,20.7478802 95.3411699,20.4426661 95.0776925,20.1856833 C94.8149616,19.927947 94.5089398,19.72221 94.1611199,19.5684725 C93.8125536,19.4139814 93.4348779,19.3371127 93.0266,19.3371127 C92.6534027,19.3371127 92.296626,19.4094598 91.9570164,19.5549075 C91.6166605,19.7018624 91.3203418,19.8940343 91.0650748,20.1336839 C90.8105542,20.3740871 90.6067885,20.6664898 90.4530312,21.0093847 C90.3000203,21.3522796 90.2246344,21.7125076 90.2246344,22.0893152 L90.2246344,30.6812813 C90.2246344,31.1281751 90.0544564,31.5177941 89.7141005,31.8523992 C89.3744909,32.1862507 88.9841265,32.3543069 88.5430072,32.3543069 C88.1011416,32.3543069 87.7100308,32.1990622 87.3711676,31.8908336 C87.0308116,31.5818514 86.86138,31.2050438 86.86138,30.7589037 L86.86138,22.2181834 C86.8778007,21.3605693 87.0435003,20.5549548 87.3577325,19.7998324 C87.6712183,19.0454636 88.10562,18.3845432 88.657952,17.8193318 C89.2087913,17.2526132 89.858901,16.8072267 90.6067885,16.4809113 C91.3539295,16.1561032 92.1689925,15.9925687 93.0527238,15.9925687 C93.8670404,15.9925687 94.6485156,16.1425382 95.3964031,16.442477 C96.1435441,16.7431694 96.7981322,17.162933 97.3586746,17.7032751 C97.9184706,18.2436171 98.3685466,18.8826828 98.7089026,19.620472 C99.0477658,20.3575076 99.2179438,21.1548324 99.2179438,22.0124464 L99.2179438,30.6812813 Z M85.2820089,30.6044126 C85.2820089,31.0505527 85.1245197,31.4364037 84.8102875,31.762719 C84.495309,32.0882807 84.1094229,32.260105 83.6511366,32.2766845 C83.1921039,32.2766845 82.7972611,32.1267151 82.4658619,31.8260227 C82.135209,31.5268375 81.968763,31.1447546 81.968763,30.6812813 L81.968763,27.6713425 L76.2872068,27.6713425 L76.2872068,30.6044126 C76.2872068,31.0505527 76.1170288,31.4409254 75.7774192,31.7747769 C75.4378097,32.109382 75.0474453,32.2766845 74.6055796,32.2766845 C74.163714,32.2766845 73.7733496,32.1221934 73.43374,31.8139648 C73.093384,31.5049826 72.9246988,31.1281751 72.9246988,30.6812813 L72.9246988,22.1413146 C72.9418659,21.282947 73.1068191,20.4773324 73.4210513,19.72221 C73.7352834,18.9678413 74.1681923,18.3076744 74.7205244,17.7417095 C75.2721101,17.1764981 75.9222198,16.730358 76.6693609,16.4040426 C77.4172483,16.0784809 78.2330577,15.9157 79.1152962,15.9157 C79.9311056,15.9157 80.7118344,16.0656694 81.4589754,16.3656082 C82.2076093,16.6663007 82.8607046,17.0853107 83.4219934,17.6264064 C83.9825358,18.1659948 84.4318654,18.8050604 84.771475,19.5428496 C85.1118309,20.2798852 85.2820089,21.07721 85.2820089,21.9348241 L85.2820089,30.6044126 Z M81.140862,20.1087392 C80.8773847,19.8510029 80.5721093,19.6452659 80.2242894,19.4915284 C79.8757231,19.3370373 79.4980474,19.259415 79.0897695,19.259415 C78.7158258,19.259415 78.3597955,19.3325157 78.0201859,19.478717 C77.67983,19.6241647 77.3827649,19.8170902 77.1289907,20.0574934 C76.8729773,20.2978966 76.6692116,20.5887921 76.5169471,20.931687 C76.3639362,21.2745818 76.2870575,21.6348099 76.2870575,22.0123711 L76.2870575,24.3274768 L81.9686137,24.3274768 L81.9686137,22.1412393 C81.9686137,21.7470985 81.8969598,21.3733054 81.7529057,21.0221208 C81.6081051,20.6701825 81.4050858,20.365722 81.140862,20.1087392 Z M70.7847853,29.4212368 C71.1236485,29.7648853 71.2938265,30.1710839 71.2938265,30.6428469 C71.2938265,31.1153636 71.1236485,31.5306056 70.7847853,31.8908336 C70.4444293,32.2163953 70.0413762,32.3791762 69.5741332,32.3791762 C69.1068901,32.3791762 68.6948802,32.2163953 68.3381036,31.8908336 L62.4012804,26.591412 L62.4012804,30.6300355 C62.4012804,31.1108419 62.2355808,31.5177941 61.904928,31.8523992 C61.5735287,32.1862507 61.1615189,32.3543069 60.6688984,32.3543069 C60.193445,32.3543069 59.7859135,32.1862507 59.4463039,31.8523992 C59.105948,31.5177941 58.9365164,31.1108419 58.9365164,30.6300355 L58.9365164,17.6648407 C58.9365164,17.2013674 59.105948,16.7989369 59.4463039,16.4552884 C59.7859135,16.1131472 60.193445,15.9405693 60.6688984,15.9405693 C61.1615189,15.9405693 61.5735287,16.1131472 61.904928,16.4552884 C62.2355808,16.7989369 62.4012804,17.2013674 62.4012804,17.6648407 L62.4012804,21.7034642 L68.3381036,16.4552884 C68.6948802,16.1131472 69.1068901,15.9405693 69.5741332,15.9405693 C70.0413762,15.9405693 70.4444293,16.1131472 70.7847853,16.4552884 C71.1236485,16.7989369 71.2938265,17.2058891 71.2938265,17.6776522 C71.2938265,18.1494153 71.1236485,18.5563674 70.7847853,18.8992623 L64.8225847,24.1474381 L70.7847853,29.4212368 Z" id="Combined-Shape"></path>
        </g>
    </g>
</svg>